 <svg
    width="221"
    height="75"
    viewBox="0 0 221 75"
    fill="none"
    xmlns="http://www.w3.org/2000/svg"
  >
    <path
      d="M11.8984 19.8672L5.31281 25.8144C4.50277 26.546 4.15393 27.6597 4.40195 28.7226L10.8197 56.2272C10.9253 56.6798 11.3288 57 11.7935 57H12.0242L11.8984 19.8672Z"
      fill="#4576A9"
    />
    <path
      d="M14 19.5H48C49.3807 19.5 50.5 20.6193 50.5 22V54C50.5 55.3807 49.3807 56.5 48 56.5H12C11.7239 56.5 11.5 56.2761 11.5 56V27V22C11.5 20.6193 12.6193 19.5 14 19.5Z"
      fill="white"
      stroke="#4576A9"
    />
    <path
      d="M30.25 27C29.1454 27 28.25 27.8954 28.25 29V35.25H22C20.8954 35.25 20 36.1454 20 37.25V38.75C20 39.8546 20.8954 40.75 22 40.75H28.25V47C28.25 48.1046 29.1454 49 30.25 49H31.75C32.8546 49 33.75 48.1046 33.75 47V40.75H40C41.1046 40.75 42 39.8546 42 38.75V37.25C42 36.1454 41.1046 35.25 40 35.25H33.75V29C33.75 27.8954 32.8546 27 31.75 27H30.25Z"
      fill="#4576A9"
    />
    <path
      d="M79.4961 37.7246C79.4961 40.0814 78.8418 41.8848 77.5332 43.1348C76.2246 44.3783 74.3398 45 71.8789 45H67.8848V30.7227H72.2988C74.571 30.7227 76.3385 31.3346 77.6016 32.5586C78.8646 33.7826 79.4961 35.5046 79.4961 37.7246ZM77.0352 37.8027C77.0352 34.3848 75.4368 32.6758 72.2402 32.6758H70.2188V43.0371H71.8789C75.3164 43.0371 77.0352 41.2923 77.0352 37.8027ZM91.9082 39.5801C91.9082 41.3444 91.4557 42.7214 90.5508 43.7109C89.6458 44.7005 88.3861 45.1953 86.7715 45.1953C85.7624 45.1953 84.8704 44.9674 84.0957 44.5117C83.321 44.056 82.7253 43.4017 82.3086 42.5488C81.8919 41.696 81.6836 40.7064 81.6836 39.5801C81.6836 37.8288 82.1328 36.4616 83.0312 35.4785C83.9297 34.4954 85.196 34.0039 86.8301 34.0039C88.3926 34.0039 89.6296 34.5085 90.541 35.5176C91.4525 36.5202 91.9082 37.8743 91.9082 39.5801ZM84.0469 39.5801C84.0469 42.0736 84.9681 43.3203 86.8105 43.3203C88.6335 43.3203 89.5449 42.0736 89.5449 39.5801C89.5449 37.1126 88.627 35.8789 86.791 35.8789C85.8275 35.8789 85.1276 36.1979 84.6914 36.8359C84.2617 37.474 84.0469 38.3887 84.0469 39.5801ZM98.9102 45.1953C97.276 45.1953 96.0326 44.7201 95.1797 43.7695C94.3333 42.8125 93.9102 41.4421 93.9102 39.6582C93.9102 37.8418 94.3529 36.4453 95.2383 35.4688C96.1302 34.4922 97.416 34.0039 99.0957 34.0039C100.235 34.0039 101.26 34.2155 102.172 34.6387L101.479 36.4844C100.508 36.1068 99.7077 35.918 99.0762 35.918C97.2077 35.918 96.2734 37.1582 96.2734 39.6387C96.2734 40.8496 96.5046 41.7611 96.9668 42.373C97.4355 42.9785 98.1191 43.2812 99.0176 43.2812C100.04 43.2812 101.007 43.0273 101.918 42.5195V44.5215C101.508 44.7624 101.068 44.9349 100.6 45.0391C100.137 45.1432 99.5742 45.1953 98.9102 45.1953ZM111.713 41.9238C111.713 42.9785 111.329 43.7891 110.561 44.3555C109.792 44.9154 108.692 45.1953 107.26 45.1953C105.821 45.1953 104.665 44.9772 103.793 44.541V42.5586C105.062 43.1445 106.244 43.4375 107.338 43.4375C108.751 43.4375 109.457 43.0111 109.457 42.1582C109.457 41.8848 109.379 41.6569 109.223 41.4746C109.066 41.2923 108.809 41.1035 108.451 40.9082C108.093 40.7129 107.595 40.4915 106.957 40.2441C105.714 39.7624 104.87 39.2806 104.428 38.7988C103.992 38.3171 103.773 37.6921 103.773 36.9238C103.773 35.9993 104.145 35.2832 104.887 34.7754C105.635 34.2611 106.651 34.0039 107.934 34.0039C109.203 34.0039 110.404 34.2611 111.537 34.7754L110.795 36.5039C109.63 36.0221 108.65 35.7812 107.855 35.7812C106.645 35.7812 106.039 36.1263 106.039 36.8164C106.039 37.1549 106.195 37.4414 106.508 37.6758C106.827 37.9102 107.517 38.2324 108.578 38.6426C109.47 38.9876 110.118 39.3034 110.521 39.5898C110.925 39.8763 111.225 40.2083 111.42 40.5859C111.615 40.957 111.713 41.403 111.713 41.9238ZM124.818 35.9375H122.182V45H119.877V35.9375H118.1V34.8633L119.877 34.1602V33.457C119.877 32.181 120.176 31.237 120.775 30.625C121.374 30.0065 122.289 29.6973 123.52 29.6973C124.327 29.6973 125.121 29.8307 125.902 30.0977L125.297 31.8359C124.73 31.6536 124.19 31.5625 123.676 31.5625C123.155 31.5625 122.774 31.7253 122.533 32.0508C122.299 32.3698 122.182 32.8516 122.182 33.4961V34.1992H124.818V35.9375ZM136.244 39.5801C136.244 41.3444 135.792 42.7214 134.887 43.7109C133.982 44.7005 132.722 45.1953 131.107 45.1953C130.098 45.1953 129.206 44.9674 128.432 44.5117C127.657 44.056 127.061 43.4017 126.645 42.5488C126.228 41.696 126.02 40.7064 126.02 39.5801C126.02 37.8288 126.469 36.4616 127.367 35.4785C128.266 34.4954 129.532 34.0039 131.166 34.0039C132.729 34.0039 133.965 34.5085 134.877 35.5176C135.788 36.5202 136.244 37.8743 136.244 39.5801ZM128.383 39.5801C128.383 42.0736 129.304 43.3203 131.146 43.3203C132.969 43.3203 133.881 42.0736 133.881 39.5801C133.881 37.1126 132.963 35.8789 131.127 35.8789C130.163 35.8789 129.464 36.1979 129.027 36.8359C128.598 37.474 128.383 38.3887 128.383 39.5801ZM144.369 34.0039C144.831 34.0039 145.212 34.0365 145.512 34.1016L145.287 36.2402C144.962 36.1621 144.623 36.123 144.271 36.123C143.354 36.123 142.608 36.4225 142.035 37.0215C141.469 37.6204 141.186 38.3984 141.186 39.3555V45H138.891V34.1992H140.688L140.99 36.1035H141.107C141.465 35.459 141.931 34.9479 142.504 34.5703C143.083 34.1927 143.705 34.0039 144.369 34.0039ZM164.223 45H161.879V38.5645H155.297V45H152.963V30.7227H155.297V36.5625H161.879V30.7227H164.223V45ZM172.455 45.1953C170.775 45.1953 169.46 44.707 168.51 43.7305C167.566 42.7474 167.094 41.3965 167.094 39.6777C167.094 37.9134 167.533 36.5267 168.412 35.5176C169.291 34.5085 170.499 34.0039 172.035 34.0039C173.461 34.0039 174.587 34.4368 175.414 35.3027C176.241 36.1686 176.654 37.36 176.654 38.877V40.1172H169.457C169.49 41.1654 169.773 41.9727 170.307 42.5391C170.84 43.099 171.592 43.3789 172.562 43.3789C173.201 43.3789 173.793 43.3203 174.34 43.2031C174.893 43.0794 175.486 42.8776 176.117 42.5977V44.4629C175.557 44.7298 174.991 44.9186 174.418 45.0293C173.845 45.14 173.191 45.1953 172.455 45.1953ZM172.035 35.7422C171.306 35.7422 170.72 35.9733 170.277 36.4355C169.841 36.8978 169.581 37.5716 169.496 38.457H174.398C174.385 37.5651 174.171 36.8913 173.754 36.4355C173.337 35.9733 172.764 35.7422 172.035 35.7422ZM186.02 45L185.561 43.4961H185.482C184.962 44.1536 184.438 44.6029 183.91 44.8438C183.383 45.0781 182.706 45.1953 181.879 45.1953C180.818 45.1953 179.988 44.9089 179.389 44.3359C178.796 43.763 178.5 42.9525 178.5 41.9043C178.5 40.791 178.913 39.9512 179.74 39.3848C180.567 38.8184 181.827 38.5091 183.52 38.457L185.385 38.3984V37.8223C185.385 37.1322 185.222 36.6178 184.896 36.2793C184.577 35.9342 184.079 35.7617 183.402 35.7617C182.849 35.7617 182.318 35.8431 181.811 36.0059C181.303 36.1686 180.814 36.3607 180.346 36.582L179.604 34.9414C180.189 34.6354 180.831 34.4043 181.527 34.248C182.224 34.0853 182.882 34.0039 183.5 34.0039C184.874 34.0039 185.909 34.3034 186.605 34.9023C187.309 35.5013 187.66 36.4421 187.66 37.7246V45H186.02ZM182.602 43.4375C183.435 43.4375 184.102 43.2064 184.604 42.7441C185.111 42.2754 185.365 41.6211 185.365 40.7812V39.8438L183.979 39.9023C182.898 39.9414 182.11 40.1237 181.615 40.4492C181.127 40.7682 180.883 41.2598 180.883 41.9238C180.883 42.4056 181.026 42.7799 181.312 43.0469C181.599 43.3073 182.029 43.4375 182.602 43.4375ZM193.158 45H190.863V29.8047H193.158V45ZM200.473 43.3398C201.033 43.3398 201.592 43.252 202.152 43.0762V44.8047C201.898 44.9154 201.57 45.0065 201.166 45.0781C200.769 45.1562 200.355 45.1953 199.926 45.1953C197.751 45.1953 196.664 44.0495 196.664 41.7578V35.9375H195.189V34.9219L196.771 34.082L197.553 31.7969H198.969V34.1992H202.045V35.9375H198.969V41.7188C198.969 42.2721 199.105 42.6823 199.379 42.9492C199.659 43.2096 200.023 43.3398 200.473 43.3398ZM213.822 45H211.518V38.3594C211.518 37.526 211.348 36.9043 211.01 36.4941C210.678 36.084 210.147 35.8789 209.418 35.8789C208.454 35.8789 207.745 36.1686 207.289 36.748C206.84 37.321 206.615 38.2845 206.615 39.6387V45H204.32V29.8047H206.615V33.6621C206.615 34.2806 206.576 34.9414 206.498 35.6445H206.645C206.957 35.1237 207.39 34.7201 207.943 34.4336C208.503 34.1471 209.154 34.0039 209.896 34.0039C212.514 34.0039 213.822 35.3223 213.822 37.959V45Z"
      fill="#3E5D82"
    />
  </svg>